<?xml version="1.0" standalone="no"?>
<!DOCTYPE svg PUBLIC "-//W3C//DTD SVG 20010904//EN"
 "http://www.w3.org/TR/2001/REC-SVG-20010904/DTD/svg10.dtd">
<svg version="1.0" xmlns="http://www.w3.org/2000/svg"
 width="1667.000000pt" height="1667.000000pt" viewBox="0 0 1667.000000 1667.000000"
 preserveAspectRatio="xMidYMid meet">
<metadata>
Created by potrace 1.11, written by Peter Selinger 2001-2013
</metadata>
<g transform="translate(0.000000,1667.000000) scale(0.100000,-0.100000)"
fill="#000000" stroke="none">
<path d="M7988 16355 c-1 -2 -57 -6 -123 -9 -66 -4 -136 -9 -155 -11 -19 -2
-69 -7 -110 -10 -41 -3 -91 -8 -110 -10 -19 -2 -57 -6 -85 -10 -45 -5 -73 -8
-155 -20 -14 -2 -45 -6 -70 -10 -25 -3 -56 -8 -70 -10 -14 -3 -41 -7 -60 -10
-43 -7 -247 -43 -275 -49 -11 -3 -64 -14 -119 -25 -54 -12 -137 -31 -185 -42
-47 -12 -93 -22 -101 -24 -149 -31 -671 -195 -864 -271 -211 -83 -345 -139
-414 -170 -41 -19 -76 -34 -79 -34 -20 0 -577 -286 -643 -330 -8 -6 -22 -13
-30 -17 -54 -24 -571 -351 -625 -395 -5 -5 -66 -50 -135 -100 -337 -246 -793
-640 -941 -812 -40 -47 -47 -51 164 91 92 62 170 113 173 113 2 0 35 20 72 43
173 112 497 283 787 417 171 78 702 275 824 306 9 2 72 19 141 39 69 19 134
37 145 39 11 3 67 16 125 30 104 24 241 54 290 62 26 4 91 16 100 19 3 0 30 5
60 9 30 4 64 10 75 12 11 2 44 6 74 10 30 3 63 7 74 10 11 2 45 6 76 9 31 4
66 8 79 10 12 2 62 7 110 10 48 4 98 8 112 10 133 22 871 22 1045 1 17 -2 68
-7 115 -11 47 -3 99 -8 115 -10 17 -2 56 -7 87 -10 31 -3 65 -7 75 -9 10 -2
43 -7 73 -11 30 -4 64 -9 75 -11 10 -2 35 -6 55 -9 20 -3 45 -7 57 -9 11 -3
38 -7 59 -10 31 -5 288 -58 344 -70 40 -10 339 -88 365 -96 503 -159 801 -277
1180 -470 173 -88 407 -218 495 -275 405 -260 732 -503 980 -730 19 -18 64
-59 100 -91 76 -70 290 -283 375 -375 245 -264 462 -540 676 -858 l104 -154
95 -33 c52 -17 214 -73 360 -124 146 -50 283 -97 305 -105 64 -21 484 -166
770 -265 77 -27 221 -76 320 -110 99 -33 187 -63 195 -67 8 -3 137 -47 285
-98 149 -51 389 -134 535 -185 146 -50 297 -102 335 -115 39 -13 129 -44 200
-69 72 -25 134 -46 138 -46 11 0 7 10 -65 215 -176 497 -408 987 -680 1440
-108 179 -321 500 -385 580 -5 6 -26 35 -48 65 -37 52 -253 329 -265 340 -3 3
-45 52 -94 110 -102 119 -118 137 -248 274 -179 189 -395 398 -568 547 -75 65
-288 241 -315 261 -5 4 -26 20 -45 36 -19 16 -66 52 -105 80 -38 28 -74 55
-80 60 -117 96 -611 412 -827 531 -32 17 -83 45 -113 61 -157 87 -668 330
-693 330 -4 0 -18 6 -32 13 -14 7 -63 28 -110 46 -47 18 -98 39 -115 46 -99
42 -600 206 -702 230 -10 3 -106 27 -213 54 -107 27 -206 52 -220 54 -14 3
-70 14 -125 26 -118 24 -391 71 -500 86 -11 1 -47 6 -80 10 -33 4 -71 8 -85
10 -14 2 -52 7 -85 10 -33 3 -76 8 -95 10 -19 2 -73 7 -120 10 -47 3 -112 9
-145 12 -67 5 -881 13 -887 8z"/>
<path d="M6607 14824 c-1 -1 -63 -5 -137 -8 -164 -7 -362 -25 -470 -41 -14 -2
-45 -7 -70 -10 -62 -9 -109 -16 -134 -21 -11 -2 -48 -9 -81 -15 -33 -5 -71
-12 -85 -15 -14 -3 -38 -7 -55 -10 -16 -3 -93 -21 -170 -40 -77 -19 -150 -37
-161 -39 -75 -16 -483 -149 -589 -193 -257 -104 -250 -101 -435 -190 -128 -61
-409 -209 -420 -221 -3 -3 -16 -12 -29 -19 -13 -8 -40 -23 -60 -34 -35 -20
-346 -223 -366 -240 -5 -4 -59 -45 -120 -90 -128 -94 -304 -238 -425 -345
-125 -112 -453 -444 -545 -552 -44 -52 -98 -115 -120 -141 -222 -261 -491
-659 -693 -1025 -53 -95 -188 -369 -235 -476 -51 -114 -94 -218 -133 -324 -25
-66 -50 -131 -55 -145 -53 -127 -169 -524 -224 -765 -43 -188 -86 -421 -100
-540 -3 -27 -9 -63 -12 -80 -3 -16 -7 -46 -9 -65 -2 -19 -8 -80 -13 -135 -18
-173 -21 -206 -28 -360 -12 -255 -5 -754 12 -890 2 -16 6 -68 10 -115 3 -47 8
-94 10 -105 2 -11 6 -42 9 -70 9 -84 17 -135 37 -260 11 -66 22 -131 24 -145
2 -14 9 -50 15 -80 6 -30 14 -68 17 -85 8 -49 60 -265 94 -387 17 -62 32 -120
34 -128 11 -54 164 -493 218 -626 254 -626 597 -1204 1020 -1718 431 -523 970
-996 1527 -1338 93 -57 160 -96 305 -178 158 -89 444 -221 680 -315 204 -81
578 -197 773 -240 116 -26 305 -64 347 -70 22 -4 47 -8 55 -10 8 -3 35 -7 60
-10 25 -3 56 -7 70 -10 14 -2 68 -8 120 -15 52 -6 113 -13 135 -15 114 -14
292 -20 585 -20 322 1 460 7 630 30 19 2 58 7 85 10 28 4 61 8 75 10 14 2 45
7 70 10 25 3 52 8 60 10 8 2 34 7 57 10 35 5 293 57 343 69 8 2 53 14 100 26
47 12 92 23 100 25 74 15 522 164 615 205 11 5 67 29 125 54 58 24 141 61 185
82 44 21 82 38 85 39 3 0 43 20 90 44 334 171 653 371 940 589 239 183 402
325 625 547 225 225 397 420 560 635 96 128 97 131 29 78 -235 -180 -622 -401
-929 -530 -117 -50 -144 -60 -299 -113 -262 -91 -653 -180 -876 -201 -36 -3
-71 -7 -79 -10 -76 -25 -790 -25 -931 0 -14 2 -49 7 -78 10 -557 62 -1216 289
-1712 589 -58 34 -116 70 -130 77 -14 8 -27 17 -30 20 -3 3 -32 23 -64 44 -33
21 -64 43 -70 47 -6 5 -40 30 -76 56 -583 417 -1121 1056 -1462 1738 -73 147
-187 407 -185 425 0 3 -6 16 -13 30 -28 52 -152 440 -185 580 -14 58 -75 353
-79 385 -4 23 -9 52 -11 65 -3 14 -7 45 -10 70 -3 25 -7 55 -9 67 -3 12 -7 50
-10 85 -4 35 -8 78 -11 97 -24 193 -25 788 -1 941 3 14 7 61 11 104 4 43 8 86
10 95 1 9 6 39 9 66 12 84 17 118 27 163 5 23 12 59 15 78 3 20 7 44 9 53 2 9
11 50 20 91 66 311 208 735 336 1006 24 49 43 91 43 94 2 12 124 243 169 320
35 61 181 295 186 300 4 3 26 34 50 70 42 61 198 269 210 280 3 3 28 32 56 65
90 108 118 138 270 290 134 135 195 192 330 307 60 52 239 187 330 250 351
242 745 438 1150 571 126 42 432 124 495 133 14 2 36 6 50 9 29 6 60 12 110
20 19 3 46 7 60 10 14 2 50 7 80 10 30 3 66 8 80 10 130 23 601 35 782 20 103
-8 246 -22 308 -30 95 -12 380 -67 470 -90 427 -111 853 -285 1165 -475 37
-22 69 -40 71 -40 6 0 277 -182 353 -237 l64 -47 -104 135 c-57 74 -113 145
-125 159 -12 14 -66 77 -120 140 -91 106 -440 462 -544 555 -343 305 -774 611
-1150 815 -200 108 -629 308 -670 312 -3 0 -22 9 -42 19 -21 11 -38 17 -38 13
0 -4 -6 -2 -12 3 -12 9 -237 88 -378 131 -83 26 -318 87 -413 107 -116 25
-259 53 -302 59 -22 3 -51 8 -65 11 -24 4 -38 6 -145 20 -27 4 -60 8 -72 10
-12 2 -57 6 -100 10 -43 4 -94 9 -113 11 -111 11 -624 26 -633 18z"/>
<path d="M10350 12678 c8 -8 69 -58 135 -110 147 -117 220 -182 350 -308 147
-142 272 -278 375 -405 36 -44 68 -82 71 -85 16 -14 190 -255 255 -353 40 -62
78 -117 84 -124 5 -7 10 -15 10 -17 0 -5 38 -69 78 -131 6 -11 15 -27 19 -35
4 -8 20 -37 36 -65 33 -56 143 -274 177 -350 12 -27 33 -73 45 -101 61 -134
214 -550 230 -624 2 -8 17 -64 35 -125 51 -180 114 -482 140 -670 6 -44 13
-91 15 -105 2 -14 7 -56 11 -95 3 -38 8 -77 9 -85 2 -8 6 -64 10 -125 4 -60 9
-126 11 -145 4 -48 4 -481 0 -555 -6 -107 -18 -270 -21 -285 -1 -8 -6 -49 -10
-90 -4 -41 -9 -82 -10 -91 -2 -9 -6 -40 -10 -69 -4 -29 -9 -62 -11 -74 -2 -11
-6 -38 -9 -61 -5 -33 -23 -122 -61 -310 -2 -11 -6 -29 -8 -40 -2 -11 -9 -40
-16 -65 -7 -25 -14 -52 -15 -60 -25 -113 -121 -412 -193 -605 -120 -320 -323
-718 -519 -1019 -59 -90 -202 -294 -228 -323 -5 -7 -14 -18 -20 -25 -58 -74
-132 -166 -144 -179 -9 -9 -55 -61 -103 -115 -180 -204 -431 -436 -661 -612
-38 -29 -66 -52 -62 -52 10 0 159 73 270 133 406 219 774 495 1110 832 88 88
174 176 190 195 80 91 180 215 259 320 47 63 89 120 94 125 4 6 24 35 43 65
295 451 481 845 624 1325 21 72 62 226 70 265 30 143 55 273 60 305 3 23 7 50
9 60 12 62 35 273 43 385 14 209 7 677 -12 810 -2 14 -7 54 -10 90 -4 36 -9
74 -11 85 -2 11 -7 45 -10 75 -3 30 -7 57 -9 60 -2 3 -6 30 -10 60 -4 30 -9
58 -11 61 -2 3 -6 21 -9 40 -47 272 -184 698 -323 1009 -284 634 -728 1232
-1232 1660 -35 30 -73 63 -85 73 -122 109 -464 349 -624 439 -20 11 -70 40
-111 63 -108 61 -328 169 -310 153z"/>
<path d="M15565 5421 c-192 -54 -530 -149 -750 -211 -220 -61 -553 -155 -740
-207 -187 -53 -362 -101 -390 -108 -27 -8 -115 -32 -195 -55 -80 -22 -210 -59
-290 -81 -80 -22 -208 -58 -285 -80 -77 -21 -180 -51 -230 -64 -237 -66 -270
-77 -276 -88 -9 -14 -164 -238 -176 -252 -4 -6 -40 -53 -79 -105 -190 -254
-342 -428 -629 -715 -280 -281 -454 -433 -730 -639 -66 -50 -136 -102 -155
-116 -57 -43 -347 -232 -455 -297 -666 -397 -1415 -687 -2165 -837 -209 -41
-231 -45 -410 -70 -58 -8 -130 -17 -160 -21 -30 -3 -71 -8 -90 -10 -160 -20
-474 -36 -710 -36 -143 0 -422 9 -490 16 -19 2 -73 6 -120 10 -47 3 -96 7
-110 10 -14 2 -54 7 -90 10 -36 3 -90 10 -120 15 -30 5 -74 11 -98 14 -122 15
-399 69 -577 111 -38 9 -77 18 -85 20 -198 46 -732 218 -855 275 -11 5 -67 29
-125 53 -427 178 -856 412 -1243 679 -124 85 -136 90 -93 40 18 -21 177 -178
210 -207 6 -5 56 -51 111 -101 55 -50 145 -128 200 -173 55 -45 109 -90 120
-99 250 -208 613 -459 985 -683 65 -38 202 -114 325 -179 109 -58 313 -160
320 -160 2 0 50 -22 107 -49 464 -218 1145 -440 1693 -551 152 -31 192 -38
295 -55 98 -16 110 -18 193 -30 27 -4 57 -8 67 -10 9 -2 62 -8 116 -14 55 -7
117 -14 139 -16 22 -2 69 -7 105 -10 36 -3 86 -8 113 -10 275 -25 1022 -25
1234 0 15 1 64 6 108 9 44 4 96 9 115 11 19 2 64 7 100 11 36 3 72 7 80 9 8 1
42 6 75 10 32 4 68 9 79 11 11 2 38 6 61 9 67 10 106 16 129 21 11 2 59 11
106 19 86 15 119 21 155 29 11 2 56 12 100 21 61 13 362 87 485 120 215 58
719 233 908 316 23 11 62 28 87 39 25 11 47 20 49 20 22 0 466 220 656 326
172 95 206 115 380 222 308 191 724 495 965 707 17 14 54 47 84 73 160 139
544 516 662 652 31 36 67 77 80 91 13 14 37 40 52 58 36 42 246 299 274 337
372 498 596 857 840 1350 90 181 185 392 243 539 18 44 41 101 51 128 10 26
18 47 16 46 -1 0 -159 -44 -352 -98z"/>
</g>
</svg>
