<?xml version="1.0" encoding="utf-8"?>
<!-- Generator: Adobe Illustrator 21.1.0, SVG Export Plug-In . SVG Version: 6.00 Build 0)  -->
<svg version="1.1" id="Capa_1" xmlns="http://www.w3.org/2000/svg" xmlns:xlink="http://www.w3.org/1999/xlink" x="0px" y="0px"
	 viewBox="0 0 152 152" style="enable-background:new 0 0 152 152;" xml:space="preserve">
<style type="text/css">
	.st0{fill:#EE482D;}
	.st1{fill:#FFFFFF;}
</style>
<g>
	<rect x="0" y="0" class="st0" width="152" height="152"/>
	<path class="st1" d="M63.5,56.8c0.3-0.8,1.1-1.4,2-1.4h5.4V39.6c0-1.6,1.3-2.9,2.9-2.9h8c1.6,0,2.9,1.3,2.9,2.9v15.9H90
		c0.9,0,1.7,0.5,2,1.4c0.3,0.8,0.2,1.8-0.5,2.4L79.3,71.4c-0.4,0.4-1,0.6-1.5,0.6c-0.6,0-1.1-0.2-1.5-0.6L64,59.2
		C63.3,58.6,63.1,57.6,63.5,56.8z M115.8,110.5c0,2.5-2,4.5-4.5,4.5h-63c-2,0-3.8-1.3-4.3-3.3l-7.6-26.5c-0.2-0.8-0.1-1.7,0.4-2.3
		c0.5-0.7,1.3-1,2.1-1h5.3V64.6c0-1.5,1.2-2.6,2.6-2.6h12.6c0.2,0.3,0.5,0.7,0.8,1l4.3,4.3H49.4v14.7h55.8c1.2,0,2.2,0.8,2.5,1.9
		l2.7,9.6V75.9H82.2c0.3-0.2,0.6-0.4,0.9-0.7l4.6-4.6h25.5c1.5,0,2.6,1.2,2.6,2.6V110.5z"/>
</g>
</svg>
