<svg xmlns="http://www.w3.org/2000/svg" viewBox="0 0 486.619 486.619" width="512" height="512"><path d="M470.481 211.25H314.28l-27.912 27.896c-1.641 1.646-3.468 3.018-5.311 4.381H454.34v107.525l-16.752-58.983a16.14 16.14 0 0 0-15.524-11.726H80.694V190.58h92.42l-26.241-26.249c-1.892-1.875-3.529-3.915-5.028-6.028H64.557c-8.92 0-16.139 7.227-16.139 16.139v105.902H16.141a16.131 16.131 0 0 0-12.875 6.406 16.119 16.119 0 0 0-2.648 14.145l46.526 162.178a27.618 27.618 0 0 0 26.548 20.003H459c15.253 0 27.619-12.365 27.619-27.619V227.389c0-8.913-7.219-16.139-16.138-16.139z" fill="#ee482d"/><path d="M244.556 216.371a13.37 13.37 0 0 0 9.473 3.934c3.436 0 6.871-1.315 9.473-3.934l74.955-74.931a13.393 13.393 0 0 0 2.916-14.595 13.433 13.433 0 0 0-12.389-8.282h-32.75v-97.17c0-9.866-7.99-17.85-17.855-17.85H229.68c-9.851 0-17.824 7.983-17.824 17.85v97.17h-32.768c-5.406 0-10.275 3.271-12.355 8.282a13.332 13.332 0 0 0 2.9 14.595l74.923 74.931z" fill="#ee482d"/></svg>