<?xml version="1.0" encoding="utf-8"?>
<!-- Generator: Adobe Illustrator 21.1.0, SVG Export Plug-In . SVG Version: 6.00 Build 0)  -->
<svg version="1.1" id="Capa_1" xmlns="http://www.w3.org/2000/svg" xmlns:xlink="http://www.w3.org/1999/xlink" x="0px" y="0px"
	 viewBox="0 0 314 98" style="enable-background:new 0 0 314 98;" xml:space="preserve">
<style type="text/css">
	.st0{fill:#EE482D;}
	.st1{fill:#C62A24;}
	.st2{fill:#FFFFFF;}
</style>
<g>
	<path class="st0" d="M62.8,24c7.3,5.4,12.2,14.6,12.2,25s-4.8,19.6-12.2,25c9.5-4.3,16.1-13.9,16.1-25C78.8,37.9,72.2,28.3,62.8,24
		z"/>
	<path class="st1" d="M54.6,77.1C39.9,77.1,28,64.5,28,49c0-15.5,11.9-28.1,26.6-28.1c5.8,0,11.2,2,15.5,5.3
		c-6.5-8.8-16.6-14.5-27.9-14.5C22.8,11.7,7,28.4,7,49s15.8,37.3,35.3,37.3c11.4,0,21.5-5.7,27.9-14.5
		C65.8,75.1,60.4,77.1,54.6,77.1z"/>
	<g>
		<path class="st0" d="M75.2,27.8c-7-11.1-19.5-18.5-33.6-18.5c-8.7,0-16.7,2.8-23.2,7.5c0.1-0.1,0.2-0.3,0.3-0.4
			C27.1,8,38.6,2.9,51.4,2.9c20.6,0,38.1,13.4,44.1,32L75.2,27.8z"/>
		<path class="st0" d="M74.7,70.8l20.1-5.6c-6.6,17.5-23.5,29.9-43.4,29.9c-12.8,0-24.4-5.2-32.8-13.5c-0.1-0.1-0.2-0.3-0.3-0.4
			c6.5,4.7,14.5,7.5,23.2,7.5C55.4,88.7,67.6,81.6,74.7,70.8z"/>
	</g>
	<g>
		<g>
			<path class="st2" d="M140.7,16.1c-0.1-0.1-0.2-0.2-0.4-0.2h-2.9c-0.2,0-0.4,0.1-0.4,0.3l-4,12.6h-9.5l3.9-12.4
				c0-0.1,0-0.3-0.1-0.4c-0.1-0.1-0.2-0.2-0.4-0.2H124c-0.2,0-0.4,0.1-0.4,0.3l-9.4,29.8c0,0.1,0,0.3,0.1,0.4
				c0.1,0.1,0.2,0.2,0.4,0.2h2.9c0.2,0,0.4-0.1,0.4-0.3l4.4-14h9.5l-4.3,13.8c0,0.1,0,0.3,0.1,0.4c0.1,0.1,0.2,0.2,0.4,0.2h2.9
				c0.2,0,0.4-0.1,0.4-0.3l9.4-29.8C140.9,16.4,140.8,16.2,140.7,16.1z"/>
			<path class="st2" d="M149.3,16.1c-0.1-0.1-0.2-0.2-0.4-0.2H146c-0.2,0-0.4,0.1-0.4,0.3l-9.4,29.8c0,0.1,0,0.3,0.1,0.4
				c0.1,0.1,0.2,0.2,0.4,0.2h2.9c0.2,0,0.4-0.1,0.4-0.3l9.4-29.8C149.4,16.4,149.4,16.2,149.3,16.1z"/>
			<path class="st2" d="M165.6,31c-0.1-0.1-0.2-0.2-0.4-0.2h-8.4c-0.2,0-0.4,0.1-0.4,0.3l-0.8,2.5c0,0.1,0,0.3,0.1,0.4
				c0.1,0.1,0.2,0.2,0.4,0.2h4.9l-0.9,3c-0.6,1.8-1.5,3.3-2.8,4.5c-1.2,1.2-2.4,1.8-3.6,1.8c-1.6,0-2.5-1-2.9-3.2
				c-0.4-2.3-0.1-5.1,1-8.4c1.3-4,3-7.2,5.1-9.5c2-2.3,4.2-3.4,6.3-3.4c1.6,0,3,0.8,4.3,2.6c0.1,0.1,0.3,0.2,0.4,0.2
				c0.2,0,0.3-0.2,0.4-0.3l1.1-3.6c0.1-0.2,0-0.4-0.1-0.5c-1.6-1.3-3.3-1.9-5.2-1.9c-3.3,0-6.4,1.5-9.4,4.4
				c-2.9,2.9-5.2,6.8-6.7,11.6c-0.8,2.6-1.3,5.1-1.4,7.6c-0.1,2.5,0.4,4.5,1.5,5.9c1.1,1.5,2.6,2.2,4.3,2.2c1.1,0,2.2-0.3,3.3-0.9
				c0.8-0.5,1.6-1.1,2.4-1.9l0.1,1.9c0,0.2,0.2,0.4,0.5,0.4h1.9c0.2,0,0.4-0.1,0.4-0.3l4.7-14.9C165.7,31.3,165.7,31.1,165.6,31z"/>
			<path class="st2" d="M190.6,15.9h-2.9c-0.2,0-0.4,0.1-0.4,0.3l-4,12.6h-9.5l3.9-12.4c0-0.1,0-0.3-0.1-0.4
				c-0.1-0.1-0.2-0.2-0.4-0.2h-2.9c-0.2,0-0.4,0.1-0.4,0.3l-9.4,29.8c0,0.1,0,0.3,0.1,0.4c0.1,0.1,0.2,0.2,0.4,0.2h2.9
				c0.2,0,0.4-0.1,0.4-0.3l4.4-14h9.5l-4.3,13.8c0,0.1,0,0.3,0.1,0.4c0.1,0.1,0.2,0.2,0.4,0.2h2.9c0.2,0,0.4-0.1,0.4-0.3l9.4-29.8
				c0-0.1,0-0.3-0.1-0.4C190.9,16,190.7,15.9,190.6,15.9z"/>
			<path class="st2" d="M220.3,18c-1.2-1.4-3.1-2.1-5.9-2.1h-8.2c-0.2,0-0.4,0.1-0.4,0.3l-9.4,29.8c0,0.1,0,0.3,0.1,0.4
				c0.1,0.1,0.2,0.2,0.4,0.2h2.9c0.2,0,0.4-0.1,0.4-0.3l4.2-13.2h4.1c2.9,0,5.4-0.8,7.7-2.4c2.2-1.6,3.8-3.8,4.7-6.6
				C221.7,21.5,221.5,19.4,220.3,18z M213.9,28.2c-1.4,1-3,1.5-4.8,1.5h-3.8l3.2-10.3h5c1.5,0,2.6,0.4,3.1,1.2
				c0.6,0.8,0.6,2,0.1,3.5C216.3,25.8,215.3,27.2,213.9,28.2z"/>
			<path class="st2" d="M241.5,19.9c-1-3-3-4.5-6.1-4.5c-3.2,0-6.2,1.5-8.9,4.4c-2.7,2.9-4.8,6.8-6.3,11.6
				c-1.5,4.8-1.8,8.7-0.8,11.4c1,2.9,3.1,4.3,6.2,4.3c3,0,5.9-1.4,8.6-4.2c2.7-2.7,4.9-6.5,6.3-11C242.1,26.8,242.5,22.8,241.5,19.9
				z M226.4,43.5c-1.9,0-3-1-3.4-3c-0.5-2.1-0.1-5,1-8.7c1.2-3.9,2.8-7,4.6-9.4c1.8-2.3,3.8-3.5,6.1-3.5c1.6,0,2.6,0.9,3.2,2.8
				c0.6,2,0.2,5.1-1.1,9.3c-1.2,3.8-2.8,6.9-4.6,9.2C230.3,42.4,228.4,43.5,226.4,43.5z"/>
			<path class="st2" d="M270.8,16.1c-0.1-0.1-0.2-0.2-0.4-0.2h-3c-0.2,0-0.3,0.1-0.4,0.3l-8.5,18.1l-1.7,3.7l0.6-3.5l2.7-18.1
				c0-0.1,0-0.3-0.1-0.4c-0.1-0.1-0.2-0.2-0.3-0.2h-2.8c-0.2,0-0.3,0.1-0.4,0.3L248,33.8c-0.2,0.5-0.6,1.2-0.9,2l-0.9,2
				c0.3-1.7,0.5-2.8,0.6-3.3l3-18.1c0-0.1,0-0.3-0.1-0.4c-0.1-0.1-0.2-0.2-0.3-0.2h-3.2c-0.2,0-0.4,0.2-0.5,0.4l-3.9,29.8
				c0,0.1,0,0.3,0.1,0.4c0.1,0.1,0.2,0.2,0.3,0.2h2.8c0.2,0,0.3-0.1,0.4-0.3l8.1-16.9c0.6-1.3,1.4-3,2.3-5l-0.3,1.8l-3.1,19.9
				c0,0.1,0,0.3,0.1,0.4c0.1,0.1,0.2,0.2,0.3,0.2h2.8c0.2,0,0.3-0.1,0.4-0.3l14.8-29.8C270.9,16.4,270.9,16.3,270.8,16.1z"/>
			<path class="st2" d="M283.4,29.1c-0.1-0.1-0.2-0.2-0.4-0.2h-10.3l3-9.6H287c0.2,0,0.4-0.1,0.4-0.3l0.8-2.5c0-0.1,0-0.3-0.1-0.4
				c-0.1-0.1-0.2-0.2-0.4-0.2h-14.5c-0.2,0-0.4,0.1-0.4,0.3l-9.4,29.8c0,0.1,0,0.3,0.1,0.4c0.1,0.1,0.2,0.2,0.4,0.2h14.5
				c0.2,0,0.4-0.1,0.4-0.3l0.8-2.5c0-0.1,0-0.3-0.1-0.4c-0.1-0.1-0.2-0.2-0.4-0.2h-11l3.4-10.9h10.6c0.2,0,0.4-0.1,0.4-0.3l0.8-2.5
				C283.5,29.4,283.5,29.2,283.4,29.1z"/>
			<path class="st2" d="M305.8,17.8c-1.3-1.3-3.3-1.9-6-1.9h-7.2c-0.2,0-0.4,0.1-0.4,0.3l-9.4,29.8c0,0.1,0,0.3,0.1,0.4
				c0.1,0.1,0.2,0.2,0.4,0.2h2.8c0.2,0,0.4-0.1,0.4-0.3l4.2-13.3h2.9c1.5,0,2.5,0.4,3,1.3c0.5,0.9,0.6,2.5,0.3,4.6l-1.1,7.2
				c0,0.1,0,0.3,0.1,0.4c0.1,0.1,0.2,0.2,0.3,0.2h3.1c0.2,0,0.4-0.2,0.5-0.4l1-8.9c0.2-1.9,0.1-3.2-0.4-4.2
				c-0.3-0.7-0.9-1.3-1.7-1.7c1.8-0.7,3.4-1.6,4.6-2.8c1.5-1.4,2.5-3.1,3.1-5C307.4,21.1,307.1,19.1,305.8,17.8z M299.1,19.4
				c1.7,0,2.9,0.4,3.4,1.1c0.6,0.7,0.6,1.8,0.1,3.3c-0.6,1.8-1.6,3.3-3.2,4.3c-1.6,1.1-3.4,1.6-5.4,1.6h-2.4l3.2-10.3H299.1z"/>
		</g>
		<g>
			<path class="st0" d="M125.2,66.5c-0.7-1-1.8-1.7-3.4-2.1c1.3-0.6,2.4-1.4,3.3-2.3c1.2-1.2,2.2-2.7,2.7-4.4
				c0.8-2.5,0.6-4.4-0.6-5.6c-1.1-1.2-2.9-1.9-5.4-1.9H114c-0.2,0-0.4,0.1-0.4,0.3l-9.4,29.8c0,0.1,0,0.3,0.1,0.4
				c0.1,0.1,0.2,0.2,0.4,0.2h8.5c2,0,3.9-0.4,5.6-1.3c1.7-0.9,3.1-1.9,4.2-3.2c1.1-1.2,2-2.8,2.5-4.5
				C126.2,69.7,126.1,67.9,125.2,66.5z M121.6,71.6c-0.6,1.8-1.6,3.3-3.1,4.4c-1.5,1.1-3.3,1.6-5.4,1.6h-4.2l3.4-10.9h3.5
				c2.6,0,4.4,0.4,5.3,1.2C122,68.6,122.2,69.8,121.6,71.6z M120.2,53.7c1.7,0,2.9,0.3,3.5,1c0.6,0.6,0.6,1.7,0.2,3
				c-0.6,1.8-1.5,3.1-2.9,4.1c-1.4,0.9-3,1.4-5,1.4h-2.6l3-9.5H120.2z"/>
			<path class="st0" d="M163.9,50.3H161c-0.2,0-0.3,0.1-0.4,0.2L143,80.3l1-8.6c0.2-1.9,0.1-3.2-0.4-4.2c-0.3-0.7-0.9-1.3-1.7-1.7
				c1.8-0.7,3.4-1.6,4.6-2.8c1.5-1.4,2.5-3.1,3.1-5c0.8-2.6,0.6-4.6-0.8-5.9c-1.3-1.3-3.3-1.9-6-1.9h-7.2c-0.2,0-0.4,0.1-0.4,0.3
				l-9.4,29.8c0,0.1,0,0.3,0.1,0.4c0.1,0.1,0.2,0.2,0.4,0.2h2.8c0.2,0,0.4-0.1,0.4-0.3l4.2-13.3h2.9c1.5,0,2.5,0.4,3,1.3
				c0.5,0.9,0.6,2.5,0.3,4.6l-1.1,7.2c0,0.1,0,0.3,0.1,0.4c0.1,0.1,0.2,0.2,0.3,0.2h3.1c0.2,0,0.4-0.1,0.4-0.3c0,0,0,0.1,0,0.1
				c0.1,0.1,0.2,0.2,0.4,0.2h3.2c0.2,0,0.3-0.1,0.4-0.2l5.7-10.1h7.2l-0.7,9.8c0,0.1,0,0.3,0.1,0.3c0.1,0.1,0.2,0.1,0.3,0.1h3.3
				c0.2,0,0.4-0.2,0.5-0.4l1.1-29.8c0-0.1,0-0.2-0.1-0.3C164.1,50.3,164,50.3,163.9,50.3z M142.2,53.8c1.7,0,2.9,0.4,3.4,1.1
				c0.6,0.7,0.6,1.8,0.1,3.3c-0.6,1.8-1.6,3.3-3.2,4.3c-1.6,1.1-3.4,1.6-5.4,1.6h-2.4l3.2-10.3H142.2z M154.5,67.4l6.2-11l-0.7,11
				H154.5z"/>
			<path class="st0" d="M191.1,51.1c0.1-0.1,0.2-0.3,0.1-0.5c-0.1-0.2-0.2-0.3-0.4-0.3h-3.4c-0.1,0-0.2,0-0.3,0.1l-12.7,12.8
				l3.9-12.4c0-0.1,0-0.3-0.1-0.4c-0.1-0.1-0.2-0.2-0.4-0.2h-2.9c-0.2,0-0.4,0.1-0.4,0.3l-9.4,29.8c0,0.1,0,0.3,0.1,0.4
				c0.1,0.1,0.2,0.2,0.4,0.2h2.9c0.2,0,0.4-0.1,0.4-0.3l3.6-11.3l3.7-3.6l2.2,14.8c0,0.2,0.2,0.4,0.5,0.4h3.4c0.1,0,0.3-0.1,0.4-0.2
				c0.1-0.1,0.1-0.2,0.1-0.4l-3.2-18L191.1,51.1z"/>
			<path class="st0" d="M209.3,50.5c-0.1-0.1-0.2-0.2-0.4-0.2h-14.5c-0.2,0-0.4,0.1-0.4,0.3l-9.4,29.8c0,0.1,0,0.3,0.1,0.4
				c0.1,0.1,0.2,0.2,0.4,0.2h14.5c0.2,0,0.4-0.1,0.4-0.3l0.8-2.5c0-0.1,0-0.3-0.1-0.4c-0.1-0.1-0.2-0.2-0.4-0.2h-11l3.4-10.9h10.6
				c0.2,0,0.4-0.1,0.4-0.3l0.8-2.5c0-0.1,0-0.3-0.1-0.4c-0.1-0.1-0.2-0.2-0.4-0.2h-10.3l3-9.6h11.3c0.2,0,0.4-0.1,0.4-0.3l0.8-2.5
				C209.4,50.7,209.4,50.6,209.3,50.5z"/>
		</g>
	</g>
</g>
</svg>
